<?xml version="1.0" encoding="UTF-8" standalone="no"?>
<!DOCTYPE svg PUBLIC "-//W3C//DTD SVG 1.1//EN" "http://www.w3.org/Graphics/SVG/1.1/DTD/svg11.dtd">
<svg width="100%" height="100%" viewBox="0 0 600 600" version="1.1" xmlns="http://www.w3.org/2000/svg" xmlns:xlink="http://www.w3.org/1999/xlink" xml:space="preserve" xmlns:serif="http://www.serif.com/" style="fill-rule:evenodd;clip-rule:evenodd;stroke-linejoin:round;stroke-miterlimit:2;">
    <g id="Layer4">
        <g transform="matrix(1.13974,0,0,0.47449,-41.9214,259.724)">
            <path d="M71,-442L71,430L300,538L529,430L529,-442L71,-442Z" style="fill:url(#_Linear1);"/>
        </g>
        <g transform="matrix(0.877827,0,0,0.580612,36.6518,256.631)">
            <path d="M71,-442L71,430L300,538L529,430L529,-442L71,-442Z" style="fill:url(#_Linear2);"/>
        </g>
    </g>
    <g transform="matrix(39.1336,0,0,39.1336,-6725.05,-11616.5)">
        <path d="M183.559,302.939C183.575,302.827 183.589,302.719 183.601,302.615C183.613,302.511 183.619,302.411 183.619,302.315C183.619,301.939 183.549,301.607 183.409,301.319C183.269,301.031 183.073,300.791 182.821,300.599C182.569,300.407 182.265,300.263 181.909,300.167C181.553,300.071 181.159,300.023 180.727,300.023L179.143,300.023C178.719,300.023 178.301,300.117 177.889,300.305C177.477,300.493 177.099,300.745 176.755,301.061C176.411,301.377 176.123,301.743 175.891,302.159C175.659,302.575 175.511,303.011 175.447,303.467C175.423,303.659 175.411,303.839 175.411,304.007C175.411,304.479 175.503,304.867 175.687,305.171C175.871,305.475 176.117,305.717 176.425,305.897C176.733,306.077 177.091,306.203 177.499,306.275C177.907,306.347 178.335,306.383 178.783,306.383L179.863,306.383L180.067,306.719L182.467,306.719L181.879,305.579C182.319,305.219 182.691,304.803 182.995,304.331C183.299,303.859 183.487,303.395 183.559,302.939ZM178.255,303.335L178.903,304.763L178.747,304.763C178.603,304.763 178.467,304.723 178.339,304.643C178.211,304.563 178.099,304.459 178.003,304.331C177.907,304.203 177.831,304.061 177.775,303.905C177.719,303.749 177.691,303.599 177.691,303.455L177.691,303.383C177.691,303.335 177.695,303.307 177.703,303.299C177.711,303.235 177.731,303.161 177.763,303.077C177.795,302.993 177.831,302.903 177.871,302.807C177.943,302.671 178.041,302.533 178.165,302.393C178.289,302.253 178.423,302.127 178.567,302.015C178.711,301.903 178.857,301.813 179.005,301.745C179.153,301.677 179.291,301.643 179.419,301.643L180.247,301.643C180.463,301.643 180.641,301.679 180.781,301.751C180.921,301.823 181.033,301.917 181.117,302.033C181.201,302.149 181.259,302.277 181.291,302.417C181.323,302.557 181.339,302.699 181.339,302.843L181.339,302.987C181.339,303.051 181.335,303.091 181.327,303.107C181.327,303.099 181.319,303.135 181.303,303.215L181.255,303.335C181.239,303.399 181.195,303.487 181.123,303.599C181.107,303.639 181.089,303.675 181.069,303.707C181.049,303.739 181.031,303.771 181.015,303.803L180.775,303.335L178.255,303.335Z" style="fill:url(#_Radial3);fill-rule:nonzero;"/>
    </g>
    <defs>
        <linearGradient id="_Linear1" x1="0" y1="0" x2="1" y2="0" gradientUnits="userSpaceOnUse" gradientTransform="matrix(-2.47854e-13,467,-409.743,-2.82489e-13,300,71)"><stop offset="0" style="stop-color:rgb(0,255,229);stop-opacity:1"/><stop offset="1" style="stop-color:rgb(0,138,213);stop-opacity:1"/></linearGradient>
        <linearGradient id="_Linear2" x1="0" y1="0" x2="1" y2="0" gradientUnits="userSpaceOnUse" gradientTransform="matrix(-3.45945e-13,-583.83,571.902,-3.53159e-13,300,497.395)"><stop offset="0" style="stop-color:rgb(34,0,77);stop-opacity:1"/><stop offset="0.46" style="stop-color:rgb(37,0,140);stop-opacity:1"/><stop offset="1" style="stop-color:rgb(38,0,157);stop-opacity:1"/></linearGradient>
        <radialGradient id="_Radial3" cx="0" cy="0" r="1" gradientUnits="userSpaceOnUse" gradientTransform="matrix(-8.3844,10.6024,-8.7516,-10.1576,182.027,298.234)"><stop offset="0" style="stop-color:rgb(106,255,95);stop-opacity:1"/><stop offset="0.19" style="stop-color:rgb(191,255,186);stop-opacity:1"/><stop offset="0.46" style="stop-color:rgb(95,233,255);stop-opacity:1"/><stop offset="0.7" style="stop-color:rgb(255,103,242);stop-opacity:1"/><stop offset="0.86" style="stop-color:rgb(248,80,214);stop-opacity:1"/><stop offset="1" style="stop-color:rgb(225,0,114);stop-opacity:1"/></radialGradient>
    </defs>
</svg>
